<svg
    xmlns="http://www.w3.org/2000/svg"
    xmlns:xlink="http://www.w3.org/1999/xlink"
>

    <g transform="scale(1.4 1.4)">
                <g>
                    <path d="M1,40 A250,250 0 0 1 80,40 L75,70 A220,220 0 0 0 6,70 L1,40" style="fill: #9E170D;"/>
                    <path d="M100,20 A240,220 0 0 1 170,20 L160,85 A155,155 0 0 0 110,85 L100,20" style="fill: #000000;"/>
                    <path d="M190,40 A155,155 0 0 1 240,40 L235,70 A125,125 0 0 0 195,70 L190,40" style="fill: #9E170D;"/>
                    <path d="M260,5 A125,125 0 0 1 300,5 L285,100 A30,30 0 0 0 275,100 L260,5" style="fill: #000000;"/>
</g>
<g>                 <circle cx="350" cy="50" r="20"
                        style="stroke: #1D7502; stroke-width: 17; fill: transparent;"/></g>
<g>                 <circle cx="420" cy="50" r="13"
                        style="fill: #9E170D;"/></g>
</g>
</svg>
