<svg 
    xmlns="http://www.w3.org/2000/svg"
    xmlns:xlink="http://www.w3.org/1999/xlink"
>

    <g>
        <path d="M210.8913837,3.077914851 A250,250 0 0 1 289.1086163,3.077914851 L284.4155823,32.70856507 A220,220 0 0 0 215.5844177,32.70856507 L210.8913837,3.077914851" style="stroke: #FFFFFF; stroke-width: 2; fill: #9E170D;"/>
        <path d="M215.5844177,32.70856507 A220,220 0 0 1 284.4155823,32.70856507 L274.2473421,96.90830721 A155,155 0 0 0 225.7526579,96.90830721 L215.5844177,32.70856507" style="stroke: #FFFFFF; stroke-width: 2; fill: black;"/>
        <path d="M225.7526579,96.90830721 A155,155 0 0 1 274.2473421,96.90830721 L269.55430813,126.5389574 A125,125 0 0 0 230.4456919,126.5389574 L225.7526579,96.90830721" style="stroke: #FFFFFF; stroke-width: 2; fill: #9E170D;"/>
        <path d="M230.4456919,126.5389574 A125,125 0 0 1 269.55430813,126.5389574 L254.693033951,220.3693498 A30,30 0 0 0 245.306966,220.3693498 L230.4456919,126.5389574" style="stroke: #FFFFFF; stroke-width: 2; fill: black;"/>
    </g>
    <g transform="rotate(18 250 250)">
        <path d="M210.8913837,3.077914851 A250,250 0 0 1 289.1086163,3.077914851 L284.4155823,32.70856507 A220,220 0 0 0 215.5844177,32.70856507 L210.8913837,3.077914851" style="stroke: #FFFFFF; stroke-width: 2; fill: #1D7502;"/>
        <path d="M215.5844177,32.70856507 A220,220 0 0 1 284.4155823,32.70856507 L274.2473421,96.90830721 A155,155 0 0 0 225.7526579,96.90830721 L215.5844177,32.70856507" style="stroke: #FFFFFF; stroke-width: 2; fill: wheat;"/>
        <path d="M225.7526579,96.90830721 A155,155 0 0 1 274.2473421,96.90830721 L269.55430813,126.5389574 A125,125 0 0 0 230.4456919,126.5389574 L225.7526579,96.90830721" style="stroke: #FFFFFF; stroke-width: 2; fill: #1D7502;"/>
        <path d="M230.4456919,126.5389574 A125,125 0 0 1 269.55430813,126.5389574 L254.693033951,220.3693498 A30,30 0 0 0 245.306966,220.3693498 L230.4456919,126.5389574" style="stroke: #FFFFFF; stroke-width: 2; fill: wheat;"/>
    </g>
    <g transform="rotate(36 250 250)">
        <path d="M210.8913837,3.077914851 A250,250 0 0 1 289.1086163,3.077914851 L284.4155823,32.70856507 A220,220 0 0 0 215.5844177,32.70856507 L210.8913837,3.077914851" style="stroke: #FFFFFF; stroke-width: 2; fill: #9E170D;"/>
        <path d="M215.5844177,32.70856507 A220,220 0 0 1 284.4155823,32.70856507 L274.2473421,96.90830721 A155,155 0 0 0 225.7526579,96.90830721 L215.5844177,32.70856507" style="stroke: #FFFFFF; stroke-width: 2; fill: black;"/>
        <path d="M225.7526579,96.90830721 A155,155 0 0 1 274.2473421,96.90830721 L269.55430813,126.5389574 A125,125 0 0 0 230.4456919,126.5389574 L225.7526579,96.90830721" style="stroke: #FFFFFF; stroke-width: 2; fill: #9E170D;"/>
        <path d="M230.4456919,126.5389574 A125,125 0 0 1 269.55430813,126.5389574 L254.693033951,220.3693498 A30,30 0 0 0 245.306966,220.3693498 L230.4456919,126.5389574" style="stroke: #FFFFFF; stroke-width: 2; fill: black;"/>
    </g>
    <g transform="rotate(54 250 250)">
        <path d="M210.8913837,3.077914851 A250,250 0 0 1 289.1086163,3.077914851 L284.4155823,32.70856507 A220,220 0 0 0 215.5844177,32.70856507 L210.8913837,3.077914851" style="stroke: #FFFFFF; stroke-width: 2; fill: #1D7502;"/>
        <path d="M215.5844177,32.70856507 A220,220 0 0 1 284.4155823,32.70856507 L274.2473421,96.90830721 A155,155 0 0 0 225.7526579,96.90830721 L215.5844177,32.70856507" style="stroke: #FFFFFF; stroke-width: 2; fill: wheat;"/>
        <path d="M225.7526579,96.90830721 A155,155 0 0 1 274.2473421,96.90830721 L269.55430813,126.5389574 A125,125 0 0 0 230.4456919,126.5389574 L225.7526579,96.90830721" style="stroke: #FFFFFF; stroke-width: 2; fill: #1D7502;"/>
        <path d="M230.4456919,126.5389574 A125,125 0 0 1 269.55430813,126.5389574 L254.693033951,220.3693498 A30,30 0 0 0 245.306966,220.3693498 L230.4456919,126.5389574" style="stroke: #FFFFFF; stroke-width: 2; fill: wheat;"/>
    </g>
    <g transform="rotate(72 250 250)">
        <path d="M210.8913837,3.077914851 A250,250 0 0 1 289.1086163,3.077914851 L284.4155823,32.70856507 A220,220 0 0 0 215.5844177,32.70856507 L210.8913837,3.077914851" style="stroke: #FFFFFF; stroke-width: 2; fill: #9E170D;"/>
        <path d="M215.5844177,32.70856507 A220,220 0 0 1 284.4155823,32.70856507 L274.2473421,96.90830721 A155,155 0 0 0 225.7526579,96.90830721 L215.5844177,32.70856507" style="stroke: #FFFFFF; stroke-width: 2; fill: black;"/>
        <path d="M225.7526579,96.90830721 A155,155 0 0 1 274.2473421,96.90830721 L269.55430813,126.5389574 A125,125 0 0 0 230.4456919,126.5389574 L225.7526579,96.90830721" style="stroke: #FFFFFF; stroke-width: 2; fill: #9E170D;"/>
        <path d="M230.4456919,126.5389574 A125,125 0 0 1 269.55430813,126.5389574 L254.693033951,220.3693498 A30,30 0 0 0 245.306966,220.3693498 L230.4456919,126.5389574" style="stroke: #FFFFFF; stroke-width: 2; fill: black;"/>
    </g>
    <g transform="rotate(90 250 250)">
        <path d="M210.8913837,3.077914851 A250,250 0 0 1 289.1086163,3.077914851 L284.4155823,32.70856507 A220,220 0 0 0 215.5844177,32.70856507 L210.8913837,3.077914851" style="stroke: #FFFFFF; stroke-width: 2; fill: #1D7502;"/>
        <path d="M215.5844177,32.70856507 A220,220 0 0 1 284.4155823,32.70856507 L274.2473421,96.90830721 A155,155 0 0 0 225.7526579,96.90830721 L215.5844177,32.70856507" style="stroke: #FFFFFF; stroke-width: 2; fill: wheat;"/>
        <path d="M225.7526579,96.90830721 A155,155 0 0 1 274.2473421,96.90830721 L269.55430813,126.5389574 A125,125 0 0 0 230.4456919,126.5389574 L225.7526579,96.90830721" style="stroke: #FFFFFF; stroke-width: 2; fill: #1D7502;"/>
        <path d="M230.4456919,126.5389574 A125,125 0 0 1 269.55430813,126.5389574 L254.693033951,220.3693498 A30,30 0 0 0 245.306966,220.3693498 L230.4456919,126.5389574" style="stroke: #FFFFFF; stroke-width: 2; fill: wheat;"/>
    </g>
    <g transform="rotate(108 250 250)">
        <path d="M210.8913837,3.077914851 A250,250 0 0 1 289.1086163,3.077914851 L284.4155823,32.70856507 A220,220 0 0 0 215.5844177,32.70856507 L210.8913837,3.077914851" style="stroke: #FFFFFF; stroke-width: 2; fill: #9E170D;"/>
        <path d="M215.5844177,32.70856507 A220,220 0 0 1 284.4155823,32.70856507 L274.2473421,96.90830721 A155,155 0 0 0 225.7526579,96.90830721 L215.5844177,32.70856507" style="stroke: #FFFFFF; stroke-width: 2; fill: black;"/>
        <path d="M225.7526579,96.90830721 A155,155 0 0 1 274.2473421,96.90830721 L269.55430813,126.5389574 A125,125 0 0 0 230.4456919,126.5389574 L225.7526579,96.90830721" style="stroke: #FFFFFF; stroke-width: 2; fill: #9E170D;"/>
        <path d="M230.4456919,126.5389574 A125,125 0 0 1 269.55430813,126.5389574 L254.693033951,220.3693498 A30,30 0 0 0 245.306966,220.3693498 L230.4456919,126.5389574" style="stroke: #FFFFFF; stroke-width: 2; fill: black;"/>
    </g>
    <g transform="rotate(126 250 250)">
        <path d="M210.8913837,3.077914851 A250,250 0 0 1 289.1086163,3.077914851 L284.4155823,32.70856507 A220,220 0 0 0 215.5844177,32.70856507 L210.8913837,3.077914851" style="stroke: #FFFFFF; stroke-width: 2; fill: #1D7502;"/>
        <path d="M215.5844177,32.70856507 A220,220 0 0 1 284.4155823,32.70856507 L274.2473421,96.90830721 A155,155 0 0 0 225.7526579,96.90830721 L215.5844177,32.70856507" style="stroke: #FFFFFF; stroke-width: 2; fill: wheat;"/>
        <path d="M225.7526579,96.90830721 A155,155 0 0 1 274.2473421,96.90830721 L269.55430813,126.5389574 A125,125 0 0 0 230.4456919,126.5389574 L225.7526579,96.90830721" style="stroke: #FFFFFF; stroke-width: 2; fill: #1D7502;"/>
        <path d="M230.4456919,126.5389574 A125,125 0 0 1 269.55430813,126.5389574 L254.693033951,220.3693498 A30,30 0 0 0 245.306966,220.3693498 L230.4456919,126.5389574" style="stroke: #FFFFFF; stroke-width: 2; fill: wheat;"/>
    </g>
    <g transform="rotate(144 250 250)">
        <path d="M210.8913837,3.077914851 A250,250 0 0 1 289.1086163,3.077914851 L284.4155823,32.70856507 A220,220 0 0 0 215.5844177,32.70856507 L210.8913837,3.077914851" style="stroke: #FFFFFF; stroke-width: 2; fill: #9E170D;"/>
        <path d="M215.5844177,32.70856507 A220,220 0 0 1 284.4155823,32.70856507 L274.2473421,96.90830721 A155,155 0 0 0 225.7526579,96.90830721 L215.5844177,32.70856507" style="stroke: #FFFFFF; stroke-width: 2; fill: black;"/>
        <path d="M225.7526579,96.90830721 A155,155 0 0 1 274.2473421,96.90830721 L269.55430813,126.5389574 A125,125 0 0 0 230.4456919,126.5389574 L225.7526579,96.90830721" style="stroke: #FFFFFF; stroke-width: 2; fill: #9E170D;"/>
        <path d="M230.4456919,126.5389574 A125,125 0 0 1 269.55430813,126.5389574 L254.693033951,220.3693498 A30,30 0 0 0 245.306966,220.3693498 L230.4456919,126.5389574" style="stroke: #FFFFFF; stroke-width: 2; fill: black;"/>
    </g>
    <g transform="rotate(162 250 250)">
        <path d="M210.8913837,3.077914851 A250,250 0 0 1 289.1086163,3.077914851 L284.4155823,32.70856507 A220,220 0 0 0 215.5844177,32.70856507 L210.8913837,3.077914851" style="stroke: #FFFFFF; stroke-width: 2; fill: #1D7502;"/>
        <path d="M215.5844177,32.70856507 A220,220 0 0 1 284.4155823,32.70856507 L274.2473421,96.90830721 A155,155 0 0 0 225.7526579,96.90830721 L215.5844177,32.70856507" style="stroke: #FFFFFF; stroke-width: 2; fill: wheat;"/>
        <path d="M225.7526579,96.90830721 A155,155 0 0 1 274.2473421,96.90830721 L269.55430813,126.5389574 A125,125 0 0 0 230.4456919,126.5389574 L225.7526579,96.90830721" style="stroke: #FFFFFF; stroke-width: 2; fill: #1D7502;"/>
        <path d="M230.4456919,126.5389574 A125,125 0 0 1 269.55430813,126.5389574 L254.693033951,220.3693498 A30,30 0 0 0 245.306966,220.3693498 L230.4456919,126.5389574" style="stroke: #FFFFFF; stroke-width: 2; fill: wheat;"/>
    </g>
    <g transform="rotate(180 250 250)">
        <path d="M210.8913837,3.077914851 A250,250 0 0 1 289.1086163,3.077914851 L284.4155823,32.70856507 A220,220 0 0 0 215.5844177,32.70856507 L210.8913837,3.077914851" style="stroke: #FFFFFF; stroke-width: 2; fill: #9E170D;"/>
        <path d="M215.5844177,32.70856507 A220,220 0 0 1 284.4155823,32.70856507 L274.2473421,96.90830721 A155,155 0 0 0 225.7526579,96.90830721 L215.5844177,32.70856507" style="stroke: #FFFFFF; stroke-width: 2; fill: black;"/>
        <path d="M225.7526579,96.90830721 A155,155 0 0 1 274.2473421,96.90830721 L269.55430813,126.5389574 A125,125 0 0 0 230.4456919,126.5389574 L225.7526579,96.90830721" style="stroke: #FFFFFF; stroke-width: 2; fill: #9E170D;"/>
        <path d="M230.4456919,126.5389574 A125,125 0 0 1 269.55430813,126.5389574 L254.693033951,220.3693498 A30,30 0 0 0 245.306966,220.3693498 L230.4456919,126.5389574" style="stroke: #FFFFFF; stroke-width: 2; fill: black;"/>
    </g>
    <g transform="rotate(198 250 250)">
        <path d="M210.8913837,3.077914851 A250,250 0 0 1 289.1086163,3.077914851 L284.4155823,32.70856507 A220,220 0 0 0 215.5844177,32.70856507 L210.8913837,3.077914851" style="stroke: #FFFFFF; stroke-width: 2; fill: #1D7502;"/>
        <path d="M215.5844177,32.70856507 A220,220 0 0 1 284.4155823,32.70856507 L274.2473421,96.90830721 A155,155 0 0 0 225.7526579,96.90830721 L215.5844177,32.70856507" style="stroke: #FFFFFF; stroke-width: 2; fill: wheat;"/>
        <path d="M225.7526579,96.90830721 A155,155 0 0 1 274.2473421,96.90830721 L269.55430813,126.5389574 A125,125 0 0 0 230.4456919,126.5389574 L225.7526579,96.90830721" style="stroke: #FFFFFF; stroke-width: 2; fill: #1D7502;"/>
        <path d="M230.4456919,126.5389574 A125,125 0 0 1 269.55430813,126.5389574 L254.693033951,220.3693498 A30,30 0 0 0 245.306966,220.3693498 L230.4456919,126.5389574" style="stroke: #FFFFFF; stroke-width: 2; fill: wheat;"/>
    </g>
    <g transform="rotate(216 250 250)">
        <path d="M210.8913837,3.077914851 A250,250 0 0 1 289.1086163,3.077914851 L284.4155823,32.70856507 A220,220 0 0 0 215.5844177,32.70856507 L210.8913837,3.077914851" style="stroke: #FFFFFF; stroke-width: 2; fill: #9E170D;"/>
        <path d="M215.5844177,32.70856507 A220,220 0 0 1 284.4155823,32.70856507 L274.2473421,96.90830721 A155,155 0 0 0 225.7526579,96.90830721 L215.5844177,32.70856507" style="stroke: #FFFFFF; stroke-width: 2; fill: black;"/>
        <path d="M225.7526579,96.90830721 A155,155 0 0 1 274.2473421,96.90830721 L269.55430813,126.5389574 A125,125 0 0 0 230.4456919,126.5389574 L225.7526579,96.90830721" style="stroke: #FFFFFF; stroke-width: 2; fill: #9E170D;"/>
        <path d="M230.4456919,126.5389574 A125,125 0 0 1 269.55430813,126.5389574 L254.693033951,220.3693498 A30,30 0 0 0 245.306966,220.3693498 L230.4456919,126.5389574" style="stroke: #FFFFFF; stroke-width: 2; fill: black;"/>
    </g>
    <g transform="rotate(234 250 250)">
        <path d="M210.8913837,3.077914851 A250,250 0 0 1 289.1086163,3.077914851 L284.4155823,32.70856507 A220,220 0 0 0 215.5844177,32.70856507 L210.8913837,3.077914851" style="stroke: #FFFFFF; stroke-width: 2; fill: #1D7502;"/>
        <path d="M215.5844177,32.70856507 A220,220 0 0 1 284.4155823,32.70856507 L274.2473421,96.90830721 A155,155 0 0 0 225.7526579,96.90830721 L215.5844177,32.70856507" style="stroke: #FFFFFF; stroke-width: 2; fill: wheat;"/>
        <path d="M225.7526579,96.90830721 A155,155 0 0 1 274.2473421,96.90830721 L269.55430813,126.5389574 A125,125 0 0 0 230.4456919,126.5389574 L225.7526579,96.90830721" style="stroke: #FFFFFF; stroke-width: 2; fill: #1D7502;"/>
        <path d="M230.4456919,126.5389574 A125,125 0 0 1 269.55430813,126.5389574 L254.693033951,220.3693498 A30,30 0 0 0 245.306966,220.3693498 L230.4456919,126.5389574" style="stroke: #FFFFFF; stroke-width: 2; fill: wheat;"/>
    </g>
    <g transform="rotate(252 250 250)">
        <path d="M210.8913837,3.077914851 A250,250 0 0 1 289.1086163,3.077914851 L284.4155823,32.70856507 A220,220 0 0 0 215.5844177,32.70856507 L210.8913837,3.077914851" style="stroke: #FFFFFF; stroke-width: 2; fill: #9E170D;"/>
        <path d="M215.5844177,32.70856507 A220,220 0 0 1 284.4155823,32.70856507 L274.2473421,96.90830721 A155,155 0 0 0 225.7526579,96.90830721 L215.5844177,32.70856507" style="stroke: #FFFFFF; stroke-width: 2; fill: black;"/>
        <path d="M225.7526579,96.90830721 A155,155 0 0 1 274.2473421,96.90830721 L269.55430813,126.5389574 A125,125 0 0 0 230.4456919,126.5389574 L225.7526579,96.90830721" style="stroke: #FFFFFF; stroke-width: 2; fill: #9E170D;"/>
        <path d="M230.4456919,126.5389574 A125,125 0 0 1 269.55430813,126.5389574 L254.693033951,220.3693498 A30,30 0 0 0 245.306966,220.3693498 L230.4456919,126.5389574" style="stroke: #FFFFFF; stroke-width: 2; fill: black;"/>
    </g>
    <g transform="rotate(270 250 250)">
        <path d="M210.8913837,3.077914851 A250,250 0 0 1 289.1086163,3.077914851 L284.4155823,32.70856507 A220,220 0 0 0 215.5844177,32.70856507 L210.8913837,3.077914851" style="stroke: #FFFFFF; stroke-width: 2; fill: #1D7502;"/>
        <path d="M215.5844177,32.70856507 A220,220 0 0 1 284.4155823,32.70856507 L274.2473421,96.90830721 A155,155 0 0 0 225.7526579,96.90830721 L215.5844177,32.70856507" style="stroke: #FFFFFF; stroke-width: 2; fill: wheat;"/>
        <path d="M225.7526579,96.90830721 A155,155 0 0 1 274.2473421,96.90830721 L269.55430813,126.5389574 A125,125 0 0 0 230.4456919,126.5389574 L225.7526579,96.90830721" style="stroke: #FFFFFF; stroke-width: 2; fill: #1D7502;"/>
        <path d="M230.4456919,126.5389574 A125,125 0 0 1 269.55430813,126.5389574 L254.693033951,220.3693498 A30,30 0 0 0 245.306966,220.3693498 L230.4456919,126.5389574" style="stroke: #FFFFFF; stroke-width: 2; fill: wheat;"/>
    </g>
    <g transform="rotate(288 250 250)">
        <path d="M210.8913837,3.077914851 A250,250 0 0 1 289.1086163,3.077914851 L284.4155823,32.70856507 A220,220 0 0 0 215.5844177,32.70856507 L210.8913837,3.077914851" style="stroke: #FFFFFF; stroke-width: 2; fill: #9E170D;"/>
        <path d="M215.5844177,32.70856507 A220,220 0 0 1 284.4155823,32.70856507 L274.2473421,96.90830721 A155,155 0 0 0 225.7526579,96.90830721 L215.5844177,32.70856507" style="stroke: #FFFFFF; stroke-width: 2; fill: black;"/>
        <path d="M225.7526579,96.90830721 A155,155 0 0 1 274.2473421,96.90830721 L269.55430813,126.5389574 A125,125 0 0 0 230.4456919,126.5389574 L225.7526579,96.90830721" style="stroke: #FFFFFF; stroke-width: 2; fill: #9E170D;"/>
        <path d="M230.4456919,126.5389574 A125,125 0 0 1 269.55430813,126.5389574 L254.693033951,220.3693498 A30,30 0 0 0 245.306966,220.3693498 L230.4456919,126.5389574" style="stroke: #FFFFFF; stroke-width: 2; fill: black;"/>
    </g>
    <g transform="rotate(306 250 250)">
        <path d="M210.8913837,3.077914851 A250,250 0 0 1 289.1086163,3.077914851 L284.4155823,32.70856507 A220,220 0 0 0 215.5844177,32.70856507 L210.8913837,3.077914851" style="stroke: #FFFFFF; stroke-width: 2; fill: #1D7502;"/>
        <path d="M215.5844177,32.70856507 A220,220 0 0 1 284.4155823,32.70856507 L274.2473421,96.90830721 A155,155 0 0 0 225.7526579,96.90830721 L215.5844177,32.70856507" style="stroke: #FFFFFF; stroke-width: 2; fill: wheat;"/>
        <path d="M225.7526579,96.90830721 A155,155 0 0 1 274.2473421,96.90830721 L269.55430813,126.5389574 A125,125 0 0 0 230.4456919,126.5389574 L225.7526579,96.90830721" style="stroke: #FFFFFF; stroke-width: 2; fill: #1D7502;"/>
        <path d="M230.4456919,126.5389574 A125,125 0 0 1 269.55430813,126.5389574 L254.693033951,220.3693498 A30,30 0 0 0 245.306966,220.3693498 L230.4456919,126.5389574" style="stroke: #FFFFFF; stroke-width: 2; fill: wheat;"/>
    </g>
    <g transform="rotate(324 250 250)">
        <path d="M210.8913837,3.077914851 A250,250 0 0 1 289.1086163,3.077914851 L284.4155823,32.70856507 A220,220 0 0 0 215.5844177,32.70856507 L210.8913837,3.077914851" style="stroke: #FFFFFF; stroke-width: 2; fill: #9E170D;"/>
        <path d="M215.5844177,32.70856507 A220,220 0 0 1 284.4155823,32.70856507 L274.2473421,96.90830721 A155,155 0 0 0 225.7526579,96.90830721 L215.5844177,32.70856507" style="stroke: #FFFFFF; stroke-width: 2; fill: black;"/>
        <path d="M225.7526579,96.90830721 A155,155 0 0 1 274.2473421,96.90830721 L269.55430813,126.5389574 A125,125 0 0 0 230.4456919,126.5389574 L225.7526579,96.90830721" style="stroke: #FFFFFF; stroke-width: 2; fill: #9E170D;"/>
        <path d="M230.4456919,126.5389574 A125,125 0 0 1 269.55430813,126.5389574 L254.693033951,220.3693498 A30,30 0 0 0 245.306966,220.3693498 L230.4456919,126.5389574" style="stroke: #FFFFFF; stroke-width: 2; fill: black;"/>
    </g>
    <g transform="rotate(342 250 250)">
        <path d="M210.8913837,3.077914851 A250,250 0 0 1 289.1086163,3.077914851 L284.4155823,32.70856507 A220,220 0 0 0 215.5844177,32.70856507 L210.8913837,3.077914851" style="stroke: #FFFFFF; stroke-width: 2; fill: #1D7502;"/>
        <path d="M215.5844177,32.70856507 A220,220 0 0 1 284.4155823,32.70856507 L274.2473421,96.90830721 A155,155 0 0 0 225.7526579,96.90830721 L215.5844177,32.70856507" style="stroke: #FFFFFF; stroke-width: 2; fill: wheat;"/>
        <path d="M225.7526579,96.90830721 A155,155 0 0 1 274.2473421,96.90830721 L269.55430813,126.5389574 A125,125 0 0 0 230.4456919,126.5389574 L225.7526579,96.90830721" style="stroke: #FFFFFF; stroke-width: 2; fill: #1D7502;"/>
        <path d="M230.4456919,126.5389574 A125,125 0 0 1 269.55430813,126.5389574 L254.693033951,220.3693498 A30,30 0 0 0 245.306966,220.3693498 L230.4456919,126.5389574" style="stroke: #FFFFFF; stroke-width: 2; fill: wheat;"/>
    </g>

    <g>
        <circle cx="250" cy="250" r="30"
            style="stroke: #FFFFFF; stroke-width: 2; fill: #1D7502;"/>
    </g>
    <g>
        <circle cx="250" cy="250" r="13"
            style="stroke: #FFFFFF; stroke-width: 2; fill: #9E170D;"/>
    </g>
    

</svg>