<svg
    xmlns="http://www.w3.org/2000/svg"
    xmlns:xlink="http://www.w3.org/1999/xlink"
>

    <g transform="scale(1.4 1.4)">
                <g>
                    <a class="dartboardButton" id="field_2x20"><path d="M385.8913837,38.077914851 A250,250 0 0 1 464.1086163,38.077914851 L459.4155823,67.70856507 A220,220 0 0 0 390.5844177,67.70856507 L385.8913837,38.077914851" style="stroke: #FFFFFF; stroke-width: 2; fill: #9E170D;"/></a>
                    <a class="dartboardButton" id="field_1x20_outer"><path d="M300.5844177,20.70856507 A220,220 0 0 1 369.4155823,20.70856507 L359.2473421,84.90830721 A155,155 0 0 0 310.7526579,84.90830721 L300.5844177,20.70856507" style="stroke: #FFFFFF; stroke-width: 2; fill: #000000;"/></a>
                    <a class="dartboardButton" id="field_3x20"><path d="M230.7526579,36.90830721 A155,155 0 0 1 279.2473421,36.90830721 L274.55430813,66.5389574 A125,125 0 0 0 235.4456919,66.5389574 L230.7526579,36.90830721" style="stroke: #FFFFFF; stroke-width: 2; fill: #9E170D;"/></a>
                    <a class="dartboardButton" id="field_1x20_inner"><path d="M135.4456919,11.5389574 A125,125 0 0 1 174.55430813,11.5389574 L159.693033951,105.3693498 A30,30 0 0 0 150.306966,105.3693498 L135.4456919,11.5389574" style="stroke: #FFFFFF; stroke-width: 2; fill: #000000;"/></a>
                </g>
    <g>
                    <circle cx="70" cy="50" r="20"
                        style="stroke: #1D7502; stroke-width: 17; fill: transparent;"/>

                </g>
                <g>
                    <circle cx="20" cy="50" r="13"
                        style="stroke: #FFFFFF; stroke-width: 2; fill: #9E170D;"/>
                </g>
                </g>


</svg>
